<svg width="16" height="16" viewBox="0 0 16 16" fill="none" xmlns="http://www.w3.org/2000/svg">
<path fill-rule="evenodd" clip-rule="evenodd" d="M1.3335 7.99967C1.3335 11.673 4.32683 14.6663 8.00016 14.6663C11.6735 14.6663 14.6668 11.673 14.6668 7.99967C14.6668 4.32634 11.6735 1.33301 8.00016 1.33301C4.32683 1.33301 1.3335 4.32634 1.3335 7.99967ZM10.2402 10.2397C10.1402 10.3397 10.0135 10.3863 9.88683 10.3863C9.76016 10.3863 9.6335 10.3397 9.5335 10.2397L8.00016 8.70634L6.46683 10.2397C6.36683 10.3397 6.24016 10.3863 6.1135 10.3863C5.98683 10.3863 5.86016 10.3397 5.76016 10.2397C5.56683 10.0463 5.56683 9.72634 5.76016 9.53301L7.2935 7.99967L5.76016 6.46634C5.56683 6.27301 5.56683 5.95301 5.76016 5.75968C5.9535 5.56634 6.2735 5.56634 6.46683 5.75968L8.00016 7.29301L9.5335 5.75968C9.72683 5.56634 10.0468 5.56634 10.2402 5.75968C10.4335 5.95301 10.4335 6.27301 10.2402 6.46634L8.70683 7.99967L10.2402 9.53301C10.4335 9.72634 10.4335 10.0463 10.2402 10.2397Z" fill="#DC362E"/>
</svg>
