<svg width="12" height="11" viewBox="0 0 12 11" fill="none" xmlns="http://www.w3.org/2000/svg">
<path d="M10.111 0.351415C10.3164 0.128672 10.5956 0.00234173 10.8874 3.22282e-05C11.1793 -0.00227728 11.4602 0.119622 11.6686 0.33909C11.8771 0.558557 11.9962 0.857747 11.9999 1.17127C12.0036 1.4848 11.8917 1.78716 11.6885 2.01229L5.81025 9.90668C5.70927 10.0235 5.58741 10.1172 5.45195 10.1823C5.31649 10.2474 5.17022 10.2825 5.02185 10.2855C4.87349 10.2885 4.72608 10.2594 4.58844 10.1998C4.45079 10.1403 4.32573 10.0515 4.22071 9.9389L0.323349 5.75369C0.116242 5.53109 -7.02738e-05 5.22923 3.18541e-08 4.91451C7.03375e-05 4.59979 0.116517 4.29799 0.323723 4.0755C0.53093 3.85301 0.811922 3.72806 1.10489 3.72813C1.39785 3.72821 1.67879 3.8533 1.88589 4.0759L4.96825 7.38798L10.0818 0.388466C10.091 0.37573 10.1011 0.363625 10.1117 0.35222L10.111 0.351415Z" fill="#00838F"/>
</svg>
