<svg width="18" height="17" viewBox="0 0 18 17" fill="none" xmlns="http://www.w3.org/2000/svg">
<path d="M17.8125 14.8125H1.6875V0.1875C1.6875 0.084375 1.60313 0 1.5 0H0.1875C0.084375 0 0 0.084375 0 0.1875V16.3125C0 16.4156 0.084375 16.5 0.1875 16.5H17.8125C17.9156 16.5 18 16.4156 18 16.3125V15C18 14.8969 17.9156 14.8125 17.8125 14.8125ZM3.375 13.3125H15.9375C16.0406 13.3125 16.125 13.2281 16.125 13.125V2.90625C16.125 2.7375 15.9211 2.65547 15.8039 2.77266L10.875 7.70156L7.93594 4.79531C7.9007 4.76042 7.85311 4.74084 7.80352 4.74084C7.75392 4.74084 7.70633 4.76042 7.67109 4.79531L3.24141 9.23906C3.2242 9.2563 3.21058 9.27677 3.20133 9.2993C3.19208 9.32183 3.18738 9.34596 3.1875 9.37031V13.125C3.1875 13.2281 3.27188 13.3125 3.375 13.3125Z" fill="#00838F"/>
</svg>
