<svg width="84" height="84" viewBox="0 0 84 84" fill="none" xmlns="http://www.w3.org/2000/svg">
<path fill-rule="evenodd" clip-rule="evenodd" d="M0.333252 41.9997C0.333252 64.958 19.0416 83.6663 41.9999 83.6663C64.9583 83.6663 83.6666 64.958 83.6666 41.9997C83.6666 19.0413 64.9583 0.333008 41.9999 0.333008C19.0416 0.333008 0.333252 19.0413 0.333252 41.9997ZM38.2916 56.0413C37.7082 56.6247 36.9166 56.958 36.0833 56.958C35.2499 56.958 34.4583 56.6247 33.8749 56.0413L22.0833 44.2497C20.8749 43.0413 20.8749 41.0413 22.0833 39.833C23.2916 38.6247 25.2916 38.6247 26.4999 39.833L36.0833 49.4163L57.4999 27.9997C58.7083 26.7913 60.7083 26.7913 61.9166 27.9997C63.1249 29.208 63.1249 31.1663 61.9166 32.4163L38.2916 56.0413Z" fill="#17754D"/>
</svg>
